<svg width="512" height="512" viewBox="0 0 512 512" xmlns="http://www.w3.org/2000/svg" aria-hidden="true">
  <defs>
    <linearGradient id="bg" x1="0%" y1="0%" x2="100%" y2="100%">
      <stop offset="0%" style="stop-color:#6f42c1"/>
      <stop offset="100%" style="stop-color:#4a2c7a"/>
    </linearGradient>
  </defs>
  <rect width="512" height="512" rx="96" fill="url(#bg)"/>
  <!-- Speech bubbles (gossip theme) -->
  <path d="M140 180c0-22 18-40 40-40h112c22 0 40 18 40 40v120c0 22-18 40-40 40H200l-44 44v-44c-22 0-40-18-40-40V180z" fill="rgba(255,255,255,0.95)"/>
  <path d="M372 260c0-22 18-40 40-40h52l-24 24v76c0 22-18 40-40 40H292l-44 44v-44c-22 0-40-18-40-40V260z" fill="rgba(255,255,255,0.85)"/>
  <circle cx="200" cy="230" r="18" fill="#6f42c1"/>
  <circle cx="260" cy="230" r="18" fill="#6f42c1"/>
  <circle cx="320" cy="290" r="14" fill="#4a2c7a"/>
  <circle cx="368" cy="290" r="14" fill="#4a2c7a"/>
</svg>
